<mxfile host="app.diagrams.net" agent="Mozilla/5.0 (Windows NT 10.0; Win64; x64) AppleWebKit/537.36 (KHTML, like Gecko) Chrome/131.0.0.0 Safari/537.36" version="26.0.6">
  <diagram name="PÃ¡gina-1" id="SCMiwHqbZms7F33vQLIs">
    <mxGraphModel>
      <root>
        <mxCell id="0" />
        <mxCell id="1" parent="0" />
        <mxCell id="2" value="Start" style="whiteSpace=wrap;strokeWidth=2;" vertex="1" parent="1">
          <mxGeometry x="8" y="272" width="95" height="54" as="geometry" />
        </mxCell>
        <mxCell id="3" value="Is it a weekday?" style="rhombus;strokeWidth=2;whiteSpace=wrap;" vertex="1" parent="1">
          <mxGeometry x="153" y="216" width="167" height="167" as="geometry" />
        </mxCell>
        <mxCell id="4" value="Is it a public holiday?" style="rhombus;strokeWidth=2;whiteSpace=wrap;" vertex="1" parent="1">
          <mxGeometry x="398" y="17" width="205" height="205" as="geometry" />
        </mxCell>
        <mxCell id="5" value="Office Closed" style="whiteSpace=wrap;strokeWidth=2;" vertex="1" parent="1">
          <mxGeometry x="715" y="8" width="156" height="54" as="geometry" />
        </mxCell>
        <mxCell id="6" value="Is the office open?" style="rhombus;strokeWidth=2;whiteSpace=wrap;" vertex="1" parent="1">
          <mxGeometry x="700" y="112" width="186" height="186" as="geometry" />
        </mxCell>
        <mxCell id="7" value="Go to work" style="whiteSpace=wrap;strokeWidth=2;" vertex="1" parent="1">
          <mxGeometry x="1013" y="126" width="139" height="54" as="geometry" />
        </mxCell>
        <mxCell id="8" value="Work from home" style="whiteSpace=wrap;strokeWidth=2;" vertex="1" parent="1">
          <mxGeometry x="993" y="305" width="179" height="54" as="geometry" />
        </mxCell>
        <mxCell id="9" value="Is it the weekend?" style="rhombus;strokeWidth=2;whiteSpace=wrap;" vertex="1" parent="1">
          <mxGeometry x="409" y="377" width="184" height="184" as="geometry" />
        </mxCell>
        <mxCell id="10" value="Relax" style="whiteSpace=wrap;strokeWidth=2;" vertex="1" parent="1">
          <mxGeometry x="744" y="348" width="99" height="54" as="geometry" />
        </mxCell>
        <mxCell id="11" value="Is there overtime work?" style="rhombus;strokeWidth=2;whiteSpace=wrap;" vertex="1" parent="1">
          <mxGeometry x="682" y="452" width="223" height="223" as="geometry" />
        </mxCell>
        <mxCell id="12" value="Work extra hours" style="whiteSpace=wrap;strokeWidth=2;" vertex="1" parent="1">
          <mxGeometry x="991" y="409" width="182" height="54" as="geometry" />
        </mxCell>
        <mxCell id="13" value="Go out with friends" style="whiteSpace=wrap;strokeWidth=2;" vertex="1" parent="1">
          <mxGeometry x="983" y="588" width="199" height="54" as="geometry" />
        </mxCell>
        <mxCell id="14" value="" style="curved=1;startArrow=none;endArrow=block;exitX=1;exitY=0.5;entryX=0;entryY=0.5;" edge="1" parent="1" source="2" target="3">
          <mxGeometry relative="1" as="geometry">
            <Array as="points" />
          </mxGeometry>
        </mxCell>
        <mxCell id="15" value="Yes" style="curved=1;startArrow=none;endArrow=block;exitX=0.84;exitY=0;entryX=0;entryY=0.5;" edge="1" parent="1" source="3" target="4">
          <mxGeometry relative="1" as="geometry">
            <Array as="points">
              <mxPoint x="359" y="120" />
            </Array>
          </mxGeometry>
        </mxCell>
        <mxCell id="16" value="Yes" style="curved=1;startArrow=none;endArrow=block;exitX=1;exitY=0.2;entryX=0;entryY=0.5;" edge="1" parent="1" source="4" target="5">
          <mxGeometry relative="1" as="geometry">
            <Array as="points">
              <mxPoint x="642" y="35" />
            </Array>
          </mxGeometry>
        </mxCell>
        <mxCell id="17" value="No" style="curved=1;startArrow=none;endArrow=block;exitX=1;exitY=0.8;entryX=0;entryY=0.5;" edge="1" parent="1" source="4" target="6">
          <mxGeometry relative="1" as="geometry">
            <Array as="points">
              <mxPoint x="642" y="205" />
            </Array>
          </mxGeometry>
        </mxCell>
        <mxCell id="18" value="Yes" style="curved=1;startArrow=none;endArrow=block;exitX=1;exitY=0.33;entryX=0;entryY=0.5;" edge="1" parent="1" source="6" target="7">
          <mxGeometry relative="1" as="geometry">
            <Array as="points">
              <mxPoint x="944" y="153" />
            </Array>
          </mxGeometry>
        </mxCell>
        <mxCell id="19" value="No" style="curved=1;startArrow=none;endArrow=block;exitX=1;exitY=0.92;entryX=0;entryY=0.5;" edge="1" parent="1" source="6" target="8">
          <mxGeometry relative="1" as="geometry">
            <Array as="points">
              <mxPoint x="944" y="332" />
            </Array>
          </mxGeometry>
        </mxCell>
        <mxCell id="20" value="No" style="curved=1;startArrow=none;endArrow=block;exitX=0.86;exitY=1;entryX=0;entryY=0.5;" edge="1" parent="1" source="3" target="9">
          <mxGeometry relative="1" as="geometry">
            <Array as="points">
              <mxPoint x="359" y="469" />
            </Array>
          </mxGeometry>
        </mxCell>
        <mxCell id="21" value="Yes" style="curved=1;startArrow=none;endArrow=block;exitX=1;exitY=0.17;entryX=0;entryY=0.49;" edge="1" parent="1" source="9" target="10">
          <mxGeometry relative="1" as="geometry">
            <Array as="points">
              <mxPoint x="642" y="375" />
            </Array>
          </mxGeometry>
        </mxCell>
        <mxCell id="22" value="No" style="curved=1;startArrow=none;endArrow=block;exitX=1;exitY=0.83;entryX=0;entryY=0.5;" edge="1" parent="1" source="9" target="11">
          <mxGeometry relative="1" as="geometry">
            <Array as="points">
              <mxPoint x="642" y="563" />
            </Array>
          </mxGeometry>
        </mxCell>
        <mxCell id="23" value="Yes" style="curved=1;startArrow=none;endArrow=block;exitX=1;exitY=0.08;entryX=0;entryY=0.5;" edge="1" parent="1" source="11" target="12">
          <mxGeometry relative="1" as="geometry">
            <Array as="points">
              <mxPoint x="944" y="436" />
            </Array>
          </mxGeometry>
        </mxCell>
        <mxCell id="24" value="No" style="curved=1;startArrow=none;endArrow=block;exitX=1;exitY=0.67;entryX=0;entryY=0.5;" edge="1" parent="1" source="11" target="13">
          <mxGeometry relative="1" as="geometry">
            <Array as="points">
              <mxPoint x="944" y="615" />
            </Array>
          </mxGeometry>
        </mxCell>
      </root>
    </mxGraphModel>
  </diagram>
</mxfile>
